<svg id="Layer_1" data-name="Layer 1" xmlns="http://www.w3.org/2000/svg" xmlns:xlink="http://www.w3.org/1999/xlink" viewBox="0 0 612 792"><defs><style>.cls-1{fill:none;}.cls-13,.cls-133,.cls-147,.cls-16,.cls-2,.cls-20,.cls-8{fill:#fff;}.cls-3{fill:#f15a29;}.cls-4{fill:#1b75bc;}.cls-5{fill:#0e76bc;}.cls-6{fill:#f1592a;}.cls-7{clip-path:url(#clip-path);}.cls-8{font-size:47px;}.cls-121,.cls-133,.cls-147,.cls-16,.cls-33,.cls-61,.cls-8{font-family:PTSans-CaptionBold, PT Sans Caption;font-weight:700;}.cls-9{letter-spacing:-0.01em;}.cls-10{letter-spacing:-0.01em;}.cls-11{letter-spacing:-0.03em;}.cls-12{letter-spacing:-0.02em;}.cls-13{font-size:36px;}.cls-13,.cls-20,.cls-82{font-family:PTSans-Caption, PT Sans Caption;}.cls-14{letter-spacing:-0.02em;}.cls-15{letter-spacing:0em;}.cls-16{font-size:19px;}.cls-17{letter-spacing:-0.01em;}.cls-18{letter-spacing:-0.02em;}.cls-19{letter-spacing:0em;}.cls-20{font-size:19px;}.cls-21{letter-spacing:-0.01em;}.cls-22{letter-spacing:0.03em;}.cls-23{letter-spacing:-0.04em;}.cls-24{letter-spacing:-0.01em;}.cls-25{letter-spacing:-0.01em;}.cls-26{letter-spacing:0em;}.cls-27{letter-spacing:-0.02em;}.cls-28{letter-spacing:-0.04em;}.cls-29{letter-spacing:0em;}.cls-30{letter-spacing:-0.02em;}.cls-31{letter-spacing:-0.03em;}.cls-32{letter-spacing:0em;}.cls-133,.cls-33,.cls-61,.cls-82{font-size:10px;}.cls-121,.cls-33,.cls-61,.cls-82{fill:#231f20;}.cls-34{letter-spacing:-0.08em;}.cls-35{letter-spacing:0em;}.cls-36{letter-spacing:-0.04em;}.cls-37{letter-spacing:-0.14em;}.cls-38{letter-spacing:0.15em;}.cls-39{letter-spacing:3.32em;}.cls-40{letter-spacing:-0.06em;}.cls-41{letter-spacing:-0.05em;}.cls-42{letter-spacing:-0.09em;}.cls-43{letter-spacing:-0.03em;}.cls-44{letter-spacing:0em;}.cls-45{letter-spacing:-0.02em;}.cls-46{letter-spacing:-0.01em;}.cls-47{letter-spacing:-0.03em;}.cls-48{letter-spacing:-0.01em;}.cls-49{letter-spacing:-0.01em;}.cls-50{letter-spacing:-0.04em;}.cls-51{letter-spacing:1.1em;}.cls-52{letter-spacing:-0.05em;}.cls-53{letter-spacing:-0.03em;}.cls-54{letter-spacing:-0.05em;}.cls-55{letter-spacing:-0.04em;}.cls-56{letter-spacing:0em;}.cls-57{letter-spacing:-0.04em;}.cls-58{letter-spacing:-0.01em;}.cls-59{letter-spacing:-0.01em;}.cls-60{letter-spacing:-0.04em;}.cls-61{letter-spacing:0.86em;}.cls-62{letter-spacing:0em;}.cls-63{letter-spacing:-0.09em;}.cls-64{letter-spacing:-0.04em;}.cls-65{letter-spacing:-0.03em;}.cls-66{letter-spacing:-0.01em;}.cls-67{letter-spacing:0.03em;}.cls-68{letter-spacing:-0.01em;}.cls-69{letter-spacing:-0.01em;}.cls-70{letter-spacing:0em;}.cls-71{letter-spacing:-0.04em;}.cls-72{letter-spacing:-0.08em;}.cls-73{letter-spacing:-0.05em;}.cls-74{letter-spacing:-0.05em;}.cls-75{letter-spacing:-0.01em;}.cls-76{letter-spacing:-0.03em;}.cls-77{letter-spacing:-0.03em;}.cls-78{letter-spacing:-0.02em;}.cls-79{letter-spacing:-0.04em;}.cls-80{letter-spacing:-0.01em;}.cls-81{letter-spacing:-0.01em;}.cls-83{letter-spacing:-0.04em;}.cls-84{letter-spacing:-0.01em;}.cls-85{letter-spacing:-0.01em;}.cls-86{letter-spacing:-0.03em;}.cls-87{letter-spacing:-0.03em;}.cls-88{letter-spacing:-0.01em;}.cls-89{letter-spacing:-0.06em;}.cls-90{letter-spacing:-0.02em;}.cls-91{letter-spacing:-0.03em;}.cls-92{letter-spacing:-0.02em;}.cls-93{letter-spacing:-0.02em;}.cls-94{letter-spacing:-0.01em;}.cls-95{letter-spacing:0.03em;}.cls-96{letter-spacing:-0.01em;}.cls-97{letter-spacing:-0.02em;}.cls-98{letter-spacing:-0.01em;}.cls-99{letter-spacing:-0.01em;}.cls-100{letter-spacing:-0.06em;}.cls-101{letter-spacing:-0.03em;}.cls-102{letter-spacing:0.03em;}.cls-103{letter-spacing:-0.01em;}.cls-104{letter-spacing:-0.08em;}.cls-105{letter-spacing:-0.05em;}.cls-106{letter-spacing:-0.01em;}.cls-107{letter-spacing:-0.02em;}.cls-108{letter-spacing:-0.07em;}.cls-109{letter-spacing:-0.03em;}.cls-110{letter-spacing:-0.03em;}.cls-111{letter-spacing:-0.01em;}.cls-112{letter-spacing:-0.02em;}.cls-113{letter-spacing:-0.02em;}.cls-114{letter-spacing:-0.02em;}.cls-115{letter-spacing:-0.03em;}.cls-116{letter-spacing:-0.01em;}.cls-117{letter-spacing:-0.04em;}.cls-118{letter-spacing:-0.07em;}.cls-119{letter-spacing:-0.03em;}.cls-120{letter-spacing:-0.01em;}.cls-121{font-size:17px;}.cls-122{letter-spacing:-0.02em;}.cls-123{letter-spacing:-0.02em;}.cls-124{letter-spacing:-0.02em;}.cls-125{letter-spacing:-0.02em;}.cls-126{letter-spacing:-0.05em;}.cls-127{letter-spacing:-0.07em;}.cls-128{letter-spacing:-0.11em;}.cls-129{letter-spacing:0em;}.cls-130{letter-spacing:-0.09em;}.cls-131{letter-spacing:-0.03em;}.cls-132{letter-spacing:-0.02em;}.cls-134{letter-spacing:-0.04em;}.cls-135{letter-spacing:-0.04em;}.cls-136{letter-spacing:-0.01em;}.cls-137{letter-spacing:-0.01em;}.cls-138{letter-spacing:-0.14em;}.cls-139{letter-spacing:-0.04em;}.cls-140{letter-spacing:0em;}.cls-141{letter-spacing:-0.01em;}.cls-142{letter-spacing:-0.03em;}.cls-143{letter-spacing:-0.06em;}.cls-144{letter-spacing:-0.03em;}.cls-145{letter-spacing:0.03em;}.cls-146{letter-spacing:0.04em;}.cls-147{font-size:15px;}.cls-148{letter-spacing:-0.02em;}.cls-149{letter-spacing:-0.02em;}.cls-150{letter-spacing:-0.06em;}.cls-151{letter-spacing:-0.02em;}.cls-152{letter-spacing:-0.03em;}.cls-153{letter-spacing:-0.06em;}</style><clipPath id="clip-path" transform="translate(0)"><rect class="cls-1" width="612" height="792"/></clipPath></defs><title>resume</title><rect class="cls-2" width="611.28" height="792"/><path class="cls-3" d="M488.27,211.91l-1,31.09L612,118.22v-30ZM477.7,0,369.19,108.51l28.64,1.4L507.74,0Zm44.75,0-5.3,86.81L612,81V60.84l-70.85,2L542.9,0Z" transform="translate(0)"/><polygon class="cls-4" points="513.18 0 403.04 110.13 431.78 111.56 493.78 49.56 488.34 206.29 610.02 84.62 577.52 86.95 509.86 154.61 517.64 0 513.18 0"/><rect class="cls-5" y="724.32" width="612" height="67.68"/><polygon class="cls-6" points="0 477.3 0 717.12 232.83 717.12 232.83 246 0 477.3"/><polygon class="cls-6" points="0 0 0 406.2 405.6 0.6 405 0 0 0"/><polygon class="cls-5" points="415.95 0 0 415.95 0 466.86 466.86 0 415.95 0"/><g class="cls-7"><text class="cls-8" transform="translate(37.35 297.31) rotate(-45)">Ma<tspan class="cls-9" x="68.01" y="0">t</tspan><tspan x="86.67" y="0">th</tspan><tspan class="cls-10" x="135.64" y="0">e</tspan><tspan class="cls-11" x="163.28" y="0">w</tspan><tspan x="200.78" y="0" xml:space="preserve"> Ni</tspan><tspan class="cls-12" x="262.16" y="0">c</tspan><tspan x="284.72" y="0">osia</tspan></text></g><text class="cls-13" transform="translate(91.25 297.15) rotate(-45)">Graphi<tspan class="cls-14" x="115.85" y="0">c</tspan><tspan class="cls-15" x="134.06" y="0" xml:space="preserve"> Designer</tspan></text><text class="cls-16" transform="translate(16.99 430.29) rotate(-45)">ma<tspan class="cls-17" x="28.86" y="0">t</tspan><tspan x="36.4" y="0">tjni</tspan><tspan class="cls-18" x="68.25" y="0">c</tspan><tspan x="77.37" y="0">osia@gmail.</tspan><tspan class="cls-18" x="194.69" y="0">c</tspan><tspan class="cls-19" x="203.81" y="0">om</tspan></text><text class="cls-16" transform="translate(216.46 232.82) rotate(-45)">908-902-7329</text><text class="cls-16" transform="translate(336.32 110.96) rotate(-45)">mjni<tspan class="cls-18" x="42.03" y="0">c</tspan><tspan x="51.15" y="0">osia.</tspan><tspan class="cls-18" x="93.63" y="0">c</tspan><tspan x="102.75" y="0">om</tspan></text><text class="cls-20" transform="translate(40.74 752.01)">I am a trust<tspan class="cls-21" x="108.6" y="0">w</tspan><tspan x="124.35" y="0">o</tspan><tspan class="cls-22" x="136.34" y="0">r</tspan><tspan x="144.13" y="0">th</tspan><tspan class="cls-23" x="164.01" y="0">y</tspan><tspan x="173.43" y="0" xml:space="preserve"> and reliable designer who is s</tspan><tspan class="cls-24" x="460.13" y="0">e</tspan><tspan x="471.31" y="0">eking </tspan></text><text class="cls-20" transform="translate(36.31 774.81)"><tspan class="cls-25">t</tspan><tspan class="cls-26" x="7.5" y="0">o </tspan><tspan class="cls-27" x="25.02" y="0">c</tspan><tspan class="cls-26" x="34.66" y="0">ontribu</tspan><tspan class="cls-21" x="103.95" y="0">t</tspan><tspan x="111.43" y="0">e m</tspan><tspan class="cls-28" x="146.34" y="0">y</tspan><tspan class="cls-29" x="155.74" y="0" xml:space="preserve"> talents in a dynami</tspan><tspan class="cls-30" x="342.28" y="0">c</tspan><tspan x="351.89" y="0"> </tspan><tspan class="cls-21" x="357.42" y="0">w</tspan><tspan x="373.17" y="0">or</tspan><tspan class="cls-31" x="392.38" y="0">k</tspan><tspan class="cls-32" x="402.41" y="0" xml:space="preserve"> environment.</tspan></text><text class="cls-33" transform="translate(249 279.2)">Shelly<tspan class="cls-34" x="30.22" y="0">’</tspan><tspan class="cls-35" x="31.86" y="0">s</tspan><tspan class="cls-36" x="36.69" y="0"> </tspan><tspan class="cls-37" x="39.07" y="0">T</tspan><tspan class="cls-35" x="43.85" y="0">ouch</tspan></text><text class="cls-33" transform="translate(316.79 279.2)"><tspan class="cls-38"> </tspan><tspan class="cls-39" x="4.21" y="0" xml:space="preserve">  </tspan><tspan x="76.21" y="0"> </tspan></text><text class="cls-33" transform="translate(429 279.2)"><tspan xml:space="preserve">        11/201</tspan><tspan class="cls-40" x="56.06" y="0">7</tspan><tspan class="cls-41" x="61.38" y="0"> </tspan><tspan class="cls-42" x="63.65" y="0">-</tspan><tspan x="66.7" y="0"> </tspan><tspan class="cls-43" x="69.46" y="0">P</tspan><tspan x="75.35" y="0">resent</tspan></text><text class="cls-33" transform="translate(249 291.2)">Fr<tspan class="cls-44" x="9.57" y="0">e</tspan><tspan x="15.46" y="0">elan</tspan><tspan class="cls-45" x="36.94" y="0">c</tspan><tspan x="41.74" y="0">e</tspan><tspan class="cls-46" x="47.68" y="0"> </tspan><tspan class="cls-35" x="50.3" y="0">Graphi</tspan><tspan class="cls-47" x="82.54" y="0">c</tspan><tspan x="87.28" y="0" xml:space="preserve"> Designer</tspan></text><text class="cls-33" transform="translate(382.54 291.2)"> </text><text class="cls-33" transform="translate(249 430.2)">Fi<tspan class="cls-48" x="8.68" y="0">v</tspan><tspan x="14.07" y="0">e</tspan><tspan class="cls-49" x="20.01" y="0"> </tspan><tspan x="22.63" y="0">Guys</tspan><tspan class="cls-50" x="45.9" y="0">,</tspan><tspan class="cls-49" x="47.97" y="0"> </tspan><tspan x="50.59" y="0">Cinnaminson</tspan><tspan class="cls-50" x="114.7" y="0">,</tspan><tspan x="116.77" y="0" xml:space="preserve"> NJ</tspan></text><text class="cls-33" transform="translate(379.25 430.2)"><tspan class="cls-51"> </tspan><tspan x="13.75" y="0"> </tspan></text><text class="cls-33" transform="translate(429 430.2)"><tspan xml:space="preserve">        11/2016</tspan><tspan class="cls-52" x="61.97" y="0"> </tspan><tspan class="cls-42" x="64.23" y="0">-</tspan><tspan x="67.28" y="0"> </tspan><tspan class="cls-53" x="70.04" y="0">P</tspan><tspan x="75.92" y="0">resent</tspan></text><text class="cls-33" transform="translate(249 442.2)"><tspan class="cls-54">R</tspan><tspan x="6" y="0">estaurant</tspan><tspan class="cls-55" x="53.29" y="0"> </tspan><tspan class="cls-56" x="55.62" y="0">Associa</tspan><tspan class="cls-44" x="91.98" y="0">t</tspan><tspan x="95.97" y="0">e</tspan></text><text class="cls-33" transform="translate(249 492.2)">QuickChek<tspan class="cls-57" x="51.53" y="0">,</tspan><tspan class="cls-56" x="53.6" y="0" xml:space="preserve"> English</tspan><tspan class="cls-58" x="92.34" y="0">t</tspan><tspan class="cls-59" x="96.32" y="0">o</tspan><tspan x="102.4" y="0">wn</tspan><tspan class="cls-60" x="117.03" y="0">,</tspan><tspan x="119.11" y="0" xml:space="preserve"> NJ</tspan></text><text class="cls-61" transform="translate(381.6 492.2)"> <tspan class="cls-62" x="11.4" y="0"> </tspan></text><text class="cls-33" transform="translate(429 492.2)"><tspan xml:space="preserve">        7/2014</tspan><tspan class="cls-52" x="56.06" y="0"> </tspan><tspan class="cls-63" x="58.32" y="0">-</tspan><tspan x="61.37" y="0" xml:space="preserve"> 4/2017</tspan></text><text class="cls-33" transform="translate(249 504.2)">Gas<tspan class="cls-64" x="17.23" y="0"> </tspan><tspan class="cls-65" x="19.56" y="0">A</tspan><tspan class="cls-48" x="25.84" y="0">t</tspan><tspan class="cls-66" x="29.81" y="0">t</tspan><tspan x="33.8" y="0">endant</tspan></text><text class="cls-33" transform="translate(249 584.36)">The<tspan class="cls-64" x="18.48" y="0"> </tspan><tspan x="20.81" y="0">A</tspan><tspan class="cls-67" x="27.39" y="0">r</tspan><tspan class="cls-35" x="31.79" y="0">t Institu</tspan><tspan class="cls-68" x="71.35" y="0">t</tspan><tspan class="cls-62" x="75.33" y="0">e </tspan><tspan class="cls-69" x="84.03" y="0">o</tspan><tspan class="cls-70" x="90.06" y="0">f Philadelphia</tspan><tspan class="cls-52" x="158.59" y="0"> </tspan><tspan class="cls-63" x="160.85" y="0">-</tspan><tspan x="163.9" y="0" xml:space="preserve"> Philadelphia</tspan><tspan class="cls-71" x="228.73" y="0">,</tspan><tspan x="230.79" y="0"> </tspan><tspan class="cls-72" x="233.55" y="0">P</tspan><tspan class="cls-73" x="238.92" y="0">A</tspan><tspan class="cls-74" x="245.02" y="0"> </tspan><tspan class="cls-63" x="247.29" y="0">-</tspan><tspan x="250.34" y="0" xml:space="preserve"> Fall </tspan><tspan class="cls-75" x="273.9" y="0">o</tspan><tspan x="279.93" y="0">f 2018</tspan></text><text class="cls-33" transform="translate(249 596.36)">Bachelor <tspan class="cls-49" x="45.87" y="0">o</tspan><tspan x="51.89" y="0">f Scien</tspan><tspan class="cls-45" x="84.59" y="0">c</tspan><tspan x="89.39" y="0">e D</tspan><tspan class="cls-44" x="105.11" y="0">e</tspan><tspan class="cls-62" x="111" y="0">gr</tspan><tspan class="cls-68" x="121.25" y="0">e</tspan><tspan class="cls-62" x="127.13" y="0">e</tspan></text><text class="cls-33" transform="translate(249 608.36)">Major:<tspan class="cls-46" x="30.79" y="0"> </tspan><tspan x="33.41" y="0">Graphi</tspan><tspan class="cls-76" x="65.65" y="0">c</tspan><tspan x="70.38" y="0" xml:space="preserve"> Design</tspan></text><text class="cls-33" transform="translate(249 673.36)">Saint John<tspan class="cls-77" x="50.43" y="0"> </tspan><tspan class="cls-35" x="52.86" y="0">Viann</tspan><tspan class="cls-78" x="81.12" y="0">e</tspan><tspan class="cls-79" x="86.9" y="0">y</tspan><tspan x="91.9" y="0" xml:space="preserve"> High School</tspan><tspan class="cls-52" x="153.04" y="0"> </tspan><tspan class="cls-63" x="155.3" y="0">-</tspan><tspan x="158.35" y="0" xml:space="preserve"> Holmdel</tspan><tspan class="cls-71" x="202.69" y="0">,</tspan><tspan x="204.76" y="0" xml:space="preserve"> NJ</tspan><tspan class="cls-80" x="218.27" y="0"> </tspan><tspan class="cls-70" x="220.88" y="0">Class </tspan><tspan class="cls-81" x="248.53" y="0">o</tspan><tspan x="254.54" y="0">f 2015</tspan></text><text class="cls-82" transform="translate(249 308.2)"><tspan class="cls-83">W</tspan><tspan x="8.71" y="0">orking with the </tspan><tspan class="cls-84" x="87.44" y="0">o</tspan><tspan class="cls-70" x="93.64" y="0">wner </tspan><tspan class="cls-84" x="121.14" y="0">t</tspan><tspan x="125.08" y="0">o crea</tspan><tspan class="cls-85" x="155.19" y="0">t</tspan><tspan x="159.14" y="0">e logos</tspan><tspan class="cls-86" x="195.27" y="0">,</tspan><tspan class="cls-70" x="197.16" y="0" xml:space="preserve"> branding</tspan><tspan class="cls-87" x="244.53" y="0">,</tspan><tspan x="246.43" y="0" xml:space="preserve"> and social media </tspan></text><text class="cls-82" transform="translate(249 320.2)">assets <tspan class="cls-88" x="33.73" y="0">f</tspan><tspan x="37.26" y="0">or clients.</tspan></text><text class="cls-82" transform="translate(249 459.2)">Duties include cashie<tspan class="cls-89" x="106.2" y="0">r</tspan><tspan class="cls-87" x="109.4" y="0">,</tspan><tspan x="111.3" y="0" xml:space="preserve"> cus</tspan><tspan class="cls-85" x="130.93" y="0">t</tspan><tspan x="134.88" y="0">omer servi</tspan><tspan class="cls-90" x="186.65" y="0">c</tspan><tspan x="191.71" y="0">e</tspan><tspan class="cls-91" x="197.69" y="0">,</tspan><tspan x="199.58" y="0"> </tspan><tspan class="cls-84" x="202.49" y="0">f</tspan><tspan x="206.02" y="0">ood preparation</tspan><tspan class="cls-91" x="285.59" y="0">,</tspan><tspan class="cls-70" x="287.49" y="0" xml:space="preserve"> and </tspan></text><text class="cls-82" transform="translate(249 471.2)">packaging in a fast pa<tspan class="cls-92" x="108.58" y="0">c</tspan><tspan x="113.64" y="0">ed restaurant environment.</tspan></text><text class="cls-82" transform="translate(249 627.36)"><tspan class="cls-93">A</tspan><tspan x="6.24" y="0">wards: Best </tspan><tspan class="cls-94" x="65.52" y="0">o</tspan><tspan x="71.71" y="0">f Qua</tspan><tspan class="cls-95" x="97.99" y="0">r</tspan><tspan class="cls-96" x="102.09" y="0">t</tspan><tspan class="cls-62" x="106.04" y="0">er</tspan><tspan class="cls-53" x="115.82" y="0"> </tspan><tspan class="cls-97" x="118.41" y="0">A</tspan><tspan x="124.65" y="0">ward</tspan><tspan class="cls-98" x="148.96" y="0">*</tspan><tspan class="cls-99" x="152.78" y="0"> </tspan><tspan class="cls-34" x="155.62" y="0">-</tspan><tspan class="cls-70" x="158.76" y="0" xml:space="preserve"> Fall 2016 Form and Spacing </tspan></text><text class="cls-82" transform="translate(249 639.36)">4.0 G<tspan class="cls-100" x="23.85" y="0">P</tspan><tspan class="cls-57" x="29.36" y="0">A</tspan><tspan class="cls-101" x="35.41" y="0"> </tspan><tspan class="cls-93" x="38.01" y="0">A</tspan><tspan class="cls-56" x="44.25" y="0">ward</tspan></text><text class="cls-82" transform="translate(249 651.36)">Best <tspan class="cls-88" x="24.34" y="0">o</tspan><tspan x="30.54" y="0">f Qua</tspan><tspan class="cls-102" x="56.82" y="0">r</tspan><tspan class="cls-88" x="60.91" y="0">t</tspan><tspan class="cls-62" x="64.85" y="0">er</tspan><tspan class="cls-43" x="74.63" y="0"> </tspan><tspan class="cls-93" x="77.23" y="0">A</tspan><tspan class="cls-70" x="83.47" y="0">ward</tspan><tspan class="cls-44" x="107.78" y="0">*</tspan><tspan class="cls-103" x="111.6" y="0"> </tspan><tspan class="cls-104" x="114.43" y="0">-</tspan><tspan x="117.58" y="0" xml:space="preserve"> Fall 201</tspan><tspan class="cls-105" x="159.41" y="0">7</tspan><tspan class="cls-70" x="164.81" y="0" xml:space="preserve"> Mar</tspan><tspan class="cls-106" x="186.02" y="0">k</tspan><tspan x="191.47" y="0">eting Design</tspan></text><text class="cls-82" transform="translate(249 690.36)"><tspan class="cls-93">A</tspan><tspan x="6.24" y="0">wards: Bishop G</tspan><tspan class="cls-85" x="84.36" y="0">e</tspan><tspan class="cls-62" x="90.24" y="0">orge</tspan><tspan class="cls-107" x="112.6" y="0"> </tspan><tspan class="cls-108" x="115.32" y="0">W</tspan><tspan class="cls-109" x="123.72" y="0">.</tspan><tspan class="cls-110" x="125.81" y="0"> </tspan><tspan class="cls-70" x="128.41" y="0">Ahr</tspan><tspan class="cls-43" x="145.07" y="0"> </tspan><tspan class="cls-93" x="147.67" y="0">A</tspan><tspan x="153.91" y="0">ward</tspan></text><text class="cls-82" transform="translate(249 709.42)"><tspan class="cls-111">*</tspan><tspan class="cls-93" x="3.77" y="0">A</tspan><tspan x="10.01" y="0">ward </tspan><tspan class="cls-111" x="37.23" y="0">f</tspan><tspan class="cls-35" x="40.77" y="0">or </tspan><tspan class="cls-112" x="53.79" y="0">ex</tspan><tspan class="cls-113" x="65.23" y="0">c</tspan><tspan x="70.3" y="0">ellen</tspan><tspan class="cls-114" x="95.39" y="0">c</tspan><tspan class="cls-62" x="100.46" y="0">e </tspan><tspan class="cls-106" x="109.35" y="0">b</tspan><tspan class="cls-115" x="115.52" y="0">y</tspan><tspan class="cls-70" x="120.48" y="0" xml:space="preserve"> a</tspan><tspan class="cls-102" x="129.21" y="0">r</tspan><tspan x="133.3" y="0">t </tspan><tspan class="cls-88" x="140.26" y="0">t</tspan><tspan class="cls-62" x="144.2" y="0">eacher</tspan></text><text class="cls-82" transform="translate(249 520.2)"><tspan class="cls-83">W</tspan><tspan x="8.71" y="0">or</tspan><tspan class="cls-116" x="18.82" y="0">k</tspan><tspan x="24.28" y="0">ed with nightl</tspan><tspan class="cls-117" x="94.07" y="0">y</tspan><tspan x="99.02" y="0" xml:space="preserve"> close outs</tspan><tspan class="cls-86" x="152.56" y="0">,</tspan><tspan class="cls-70" x="154.45" y="0" xml:space="preserve"> and handling large sums </tspan><tspan class="cls-106" x="282.79" y="0">o</tspan><tspan x="288.98" y="0">f mon</tspan><tspan class="cls-93" x="317.73" y="0">e</tspan><tspan class="cls-118" x="323.5" y="0">y</tspan><tspan class="cls-119" x="328.09" y="0">.</tspan><tspan class="cls-70" x="330.19" y="0"> </tspan></text><text class="cls-33" transform="translate(249 532.2)">Empl<tspan class="cls-49" x="24.66" y="0">o</tspan><tspan class="cls-48" x="30.68" y="0">y</tspan><tspan class="cls-120" x="36.02" y="0">e</tspan><tspan x="41.9" y="0">e </tspan><tspan class="cls-69" x="50.6" y="0">o</tspan><tspan x="56.63" y="0">f the month thr</tspan><tspan class="cls-68" x="131.81" y="0">e</tspan><tspan x="137.69" y="0">e times</tspan></text><text class="cls-121" transform="translate(249 262.02)"><tspan class="cls-45">E</tspan><tspan class="cls-122" x="9.28" y="0">XPE</tspan><tspan class="cls-123" x="40.12" y="0">R</tspan><tspan class="cls-124" x="50.86" y="0">I</tspan><tspan class="cls-125" x="57.14" y="0">E</tspan><tspan class="cls-124" x="66.42" y="0">N</tspan><tspan class="cls-123" x="78.22" y="0">C</tspan><tspan x="88.2" y="0">E</tspan></text><text class="cls-121" transform="translate(249 412.02)"><tspan class="cls-126">W</tspan><tspan class="cls-122" x="15.1" y="0">O</tspan><tspan class="cls-45" x="27.13" y="0">R</tspan><tspan x="37.88" y="0">K</tspan></text><text class="cls-121" transform="translate(249 563.59)"><tspan class="cls-45">E</tspan><tspan class="cls-122" x="9.28" y="0">DU</tspan><tspan class="cls-127" x="32.11" y="0">C</tspan><tspan class="cls-128" x="41.28" y="0">A</tspan><tspan class="cls-124" x="50.68" y="0">TIO</tspan><tspan x="79.13" y="0">N</tspan></text><text class="cls-33" transform="translate(249 342.32)">The Moni<tspan class="cls-120" x="45.63" y="0">t</tspan><tspan class="cls-35" x="49.61" y="0">or In</tspan><tspan class="cls-44" x="72.85" y="0">t</tspan><tspan class="cls-70" x="76.84" y="0">ernshi</tspan><tspan class="cls-94" x="107.6" y="0">p</tspan><tspan class="cls-60" x="113.71" y="0">,</tspan><tspan x="115.79" y="0"> </tspan><tspan class="cls-129" x="118.55" y="0">L</tspan><tspan x="124.08" y="0">awren</tspan><tspan class="cls-45" x="154.5" y="0">c</tspan><tspan x="159.3" y="0">ville</tspan><tspan class="cls-60" x="180.61" y="0">,</tspan><tspan x="182.69" y="0" xml:space="preserve"> NJ    7/2018</tspan><tspan class="cls-52" x="241.21" y="0"> </tspan><tspan class="cls-130" x="243.47" y="0">-</tspan><tspan x="246.51" y="0" xml:space="preserve"> 9/2018</tspan></text><text class="cls-33" transform="translate(249 354.32)">Graphi<tspan class="cls-131" x="32.24" y="0">c</tspan><tspan x="36.97" y="0" xml:space="preserve"> Design In</tspan><tspan class="cls-68" x="86.28" y="0">t</tspan><tspan x="90.26" y="0">ernship</tspan></text><text class="cls-82" transform="translate(249 371.35)"><tspan class="cls-83">W</tspan><tspan x="8.71" y="0">or</tspan><tspan class="cls-116" x="18.82" y="0">k</tspan><tspan x="24.28" y="0">ed with a </tspan><tspan class="cls-88" x="73.13" y="0">t</tspan><tspan class="cls-62" x="77.07" y="0">eam </tspan><tspan class="cls-88" x="101.26" y="0">o</tspan><tspan class="cls-62" x="107.46" y="0">f edi</tspan><tspan class="cls-88" x="129.45" y="0">t</tspan><tspan class="cls-62" x="133.39" y="0">ors and a graphi</tspan><tspan class="cls-132" x="213.33" y="0">c</tspan><tspan x="218.38" y="0" xml:space="preserve"> designer </tspan><tspan class="cls-84" x="267.08" y="0">t</tspan><tspan x="271.03" y="0">o layout </tspan></text><text class="cls-82" transform="translate(249 383.35)">n<tspan class="cls-111" x="6.41" y="0">e</tspan><tspan x="12.29" y="0">wspaper spread and ta</tspan><tspan class="cls-106" x="124.18" y="0">k</tspan><tspan x="129.63" y="0">e pictures.</tspan></text><text class="cls-133" transform="translate(170.98 352.05)">Adobe<tspan class="cls-46" x="31.15" y="0"> </tspan><tspan class="cls-134" x="33.77" y="0">C</tspan><tspan x="39.48" y="0">C</tspan></text><path class="cls-2" d="M146.29,360.54l.16-1.45h-.06l-.48,1.1-1.62,2.61h-.46l-1.72-2.62-.47-1.08h-.06l.21,1.43v3.52h-1.4v-7h1.34l2,3.23.38.77h.05l.33-.79,1.93-3.21h1.33v7h-1.48Zm2.81-2.87a.73.73,0,0,1,.23-.54.92.92,0,0,1,.65-.21,1,1,0,0,1,.68.22.66.66,0,0,1,.25.53.63.63,0,0,1-.25.5,1,1,0,0,1-.68.21.92.92,0,0,1-.65-.21A.67.67,0,0,1,149.1,357.67Zm.21,1.13h1.4v5.25h-1.4Zm7,4.93a2.72,2.72,0,0,1-.81.35,4.07,4.07,0,0,1-1,.12,3,3,0,0,1-1.14-.2,2,2,0,0,1-.76-.57,2.34,2.34,0,0,1-.43-.88,4.31,4.31,0,0,1-.13-1.12,3,3,0,0,1,.65-2.05,2.35,2.35,0,0,1,1.87-.73,4.52,4.52,0,0,1,1,.09,3.86,3.86,0,0,1,.68.25l-.34,1.12a2.54,2.54,0,0,0-.51-.17,3.45,3.45,0,0,0-.6-.05,1.24,1.24,0,0,0-1,.36,1.7,1.7,0,0,0-.34,1.18,2.21,2.21,0,0,0,.08.59,1.34,1.34,0,0,0,.25.49,1.18,1.18,0,0,0,.43.33,1.44,1.44,0,0,0,.61.12,2.4,2.4,0,0,0,.67-.08,2.67,2.67,0,0,0,.46-.2Zm4.14-3.65a1.8,1.8,0,0,0-.6-.1,1.18,1.18,0,0,0-.72.21,1,1,0,0,0-.38.53v3.33h-1.4V358.8h1.1l.15.73h.13a1.4,1.4,0,0,1,.54-.63,1.31,1.31,0,0,1,.76-.22,1.89,1.89,0,0,1,.62.11Zm.66,1.35a2.86,2.86,0,0,1,.69-2,2.54,2.54,0,0,1,2-.74,3,3,0,0,1,1.17.21,2.26,2.26,0,0,1,.83.58,2.55,2.55,0,0,1,.5.88,3.59,3.59,0,0,1,.16,1.11,3.47,3.47,0,0,1-.18,1.15,2.34,2.34,0,0,1-.52.88,2.28,2.28,0,0,1-.83.55,3.3,3.3,0,0,1-1.13.19,3,3,0,0,1-1.18-.21,2.28,2.28,0,0,1-.83-.59,2.44,2.44,0,0,1-.49-.88A3.46,3.46,0,0,1,161.07,361.43Zm1.44,0a2.51,2.51,0,0,0,.07.62,1.52,1.52,0,0,0,.22.5,1,1,0,0,0,.37.35,1.19,1.19,0,0,0,.56.13c.81,0,1.22-.54,1.22-1.6a3.27,3.27,0,0,0-.06-.65,2,2,0,0,0-.21-.51,1.1,1.1,0,0,0-.38-.33,1.26,1.26,0,0,0-.57-.12,1.08,1.08,0,0,0-.89.38A1.85,1.85,0,0,0,162.51,361.43Zm5,1.26.33.14.4.13.44.1a3.42,3.42,0,0,0,.45,0,1.19,1.19,0,0,0,.55-.11.43.43,0,0,0,.19-.41.39.39,0,0,0-.26-.36A5.83,5.83,0,0,0,169,362l-.58-.19a2.15,2.15,0,0,1-.56-.3,1.4,1.4,0,0,1-.42-.48,1.58,1.58,0,0,1-.17-.76,1.49,1.49,0,0,1,.49-1.21,2.17,2.17,0,0,1,1.41-.41,5.8,5.8,0,0,1,1.13.1,3.7,3.7,0,0,1,.84.25l-.29,1.06a5.22,5.22,0,0,0-.66-.21,3.31,3.31,0,0,0-.83-.1,1,1,0,0,0-.52.1.4.4,0,0,0-.17.37.36.36,0,0,0,.27.34,5.66,5.66,0,0,0,.64.23l.59.18a2.22,2.22,0,0,1,.55.29,1.32,1.32,0,0,1,.58,1.18,1.62,1.62,0,0,1-.54,1.3,2.54,2.54,0,0,1-1.64.46,5.47,5.47,0,0,1-1.1-.11,2.58,2.58,0,0,1-.83-.3Zm4.54-1.26a2.86,2.86,0,0,1,.69-2,2.54,2.54,0,0,1,2-.74,3,3,0,0,1,1.17.21,2.26,2.26,0,0,1,.83.58,2.55,2.55,0,0,1,.5.88,3.59,3.59,0,0,1,.16,1.11,3.47,3.47,0,0,1-.18,1.15,2.34,2.34,0,0,1-.52.88,2.28,2.28,0,0,1-.83.55,3.3,3.3,0,0,1-1.13.19,3,3,0,0,1-1.18-.21,2.28,2.28,0,0,1-.83-.59,2.44,2.44,0,0,1-.49-.88A3.46,3.46,0,0,1,172.06,361.43Zm1.44,0a2.51,2.51,0,0,0,.07.62,1.52,1.52,0,0,0,.22.5,1,1,0,0,0,.37.35,1.19,1.19,0,0,0,.56.13c.81,0,1.22-.54,1.22-1.6a3.27,3.27,0,0,0-.06-.65,2,2,0,0,0-.21-.51,1.1,1.1,0,0,0-.38-.33,1.26,1.26,0,0,0-.57-.12,1.08,1.08,0,0,0-.89.38A1.85,1.85,0,0,0,173.5,361.43Zm4.32-2.63h.79v-.33a1.84,1.84,0,0,1,.14-.76,1.26,1.26,0,0,1,.38-.47,1.49,1.49,0,0,1,.56-.24,2.76,2.76,0,0,1,.65-.07,7,7,0,0,1,.84,0,3.52,3.52,0,0,1,.66.15l-.26,1.09a2.43,2.43,0,0,0-.45-.11,2.9,2.9,0,0,0-.43,0c-.29,0-.47.05-.56.16a.88.88,0,0,0-.13.57h1.28V360H180v4.08h-1.4V360h-.79Zm3.53,0h.8v-.72l1.4-.37v1.09H185V360h-1.41v1.82a2.18,2.18,0,0,0,.13.9.47.47,0,0,0,.49.28,1.51,1.51,0,0,0,.39,0,1.67,1.67,0,0,0,.34-.11l.29,1.05a5.21,5.21,0,0,1-.73.24,3.9,3.9,0,0,1-.81.1,1.48,1.48,0,0,1-1.14-.39,1.76,1.76,0,0,1-.36-1.23V360h-.8Zm7,1.75a4.85,4.85,0,0,1,.22-1.54,3.26,3.26,0,0,1,.63-1.15,2.84,2.84,0,0,1,1-.71,3.62,3.62,0,0,1,1.36-.24,3.58,3.58,0,0,1,1.41.26,2.73,2.73,0,0,1,1,.75,3.09,3.09,0,0,1,.61,1.15,5.29,5.29,0,0,1,0,3,3.16,3.16,0,0,1-.64,1.14,2.72,2.72,0,0,1-1,.71,3.42,3.42,0,0,1-1.35.25,3.49,3.49,0,0,1-1.42-.27,2.68,2.68,0,0,1-1-.74,3.15,3.15,0,0,1-.6-1.15A5.3,5.3,0,0,1,188.32,360.55Zm1.57,0a4.07,4.07,0,0,0,.1.95,2.61,2.61,0,0,0,.3.74,1.47,1.47,0,0,0,.51.48,1.6,1.6,0,0,0,.75.17,1.49,1.49,0,0,0,1.23-.54,2.9,2.9,0,0,0,.44-1.8,4.45,4.45,0,0,0-.09-.93,2.11,2.11,0,0,0-.3-.75,1.44,1.44,0,0,0-.52-.49,1.61,1.61,0,0,0-.76-.17,1.44,1.44,0,0,0-1.22.56A2.89,2.89,0,0,0,189.89,360.55Zm5.46-1.75h.79v-.33a1.84,1.84,0,0,1,.14-.76,1.26,1.26,0,0,1,.38-.47,1.44,1.44,0,0,1,.55-.24,2.84,2.84,0,0,1,.66-.07,6.67,6.67,0,0,1,.83,0,3.45,3.45,0,0,1,.67.15l-.26,1.09a2.43,2.43,0,0,0-.45-.11,2.9,2.9,0,0,0-.43,0c-.29,0-.47.05-.56.16a.88.88,0,0,0-.13.57h1.28V360h-1.28v4.08h-1.4V360h-.79Zm9.15,0v5.25h-1.4V360h-1.85v4.08h-1.4V360h-.8V358.8h.8v-.13a1.51,1.51,0,0,1,.55-1.33A2.75,2.75,0,0,1,202,357a9.74,9.74,0,0,1,1.39.09,5.31,5.31,0,0,1,1.08.27l-.28,1.1-.38-.11c-.15,0-.3-.07-.47-.09l-.5-.07-.49,0-.57,0a.86.86,0,0,0-.33.1.41.41,0,0,0-.15.21,1.16,1.16,0,0,0,0,.35Zm5.52,4.93a2.67,2.67,0,0,1-.82.35,3.93,3.93,0,0,1-1,.12,3,3,0,0,1-1.15-.2,2.09,2.09,0,0,1-.76-.57,2.48,2.48,0,0,1-.42-.88,4.31,4.31,0,0,1-.13-1.12,3,3,0,0,1,.64-2.05,2.37,2.37,0,0,1,1.88-.73,4.36,4.36,0,0,1,1,.09,3.69,3.69,0,0,1,.69.25l-.34,1.12a2.63,2.63,0,0,0-.52-.17,3.33,3.33,0,0,0-.59-.05,1.28,1.28,0,0,0-1,.36,1.75,1.75,0,0,0-.33,1.18,2.21,2.21,0,0,0,.08.59,1.34,1.34,0,0,0,.25.49,1.18,1.18,0,0,0,.43.33,1.44,1.44,0,0,0,.61.12,2.27,2.27,0,0,0,.66-.08,2.46,2.46,0,0,0,.47-.2Zm5.33-.16a3.1,3.1,0,0,1-.93.44,3.9,3.9,0,0,1-1.25.19,2.47,2.47,0,0,1-2-.74,3,3,0,0,1-.63-2,2.82,2.82,0,0,1,.71-2.08,2.71,2.71,0,0,1,2-.7,3.31,3.31,0,0,1,.83.1,2.06,2.06,0,0,1,.73.35,1.89,1.89,0,0,1,.51.66,2.42,2.42,0,0,1,.2,1,3.93,3.93,0,0,1,0,.46,3.47,3.47,0,0,1-.08.52h-3.5a1.44,1.44,0,0,0,.39,1,1.61,1.61,0,0,0,1.13.33,2.47,2.47,0,0,0,.84-.14,2.66,2.66,0,0,0,.58-.27Zm-2.1-3.82a1.19,1.19,0,0,0-.92.33,1.45,1.45,0,0,0-.35.86h2.26a1.23,1.23,0,0,0-.2-.87A.9.9,0,0,0,213.25,359.75Z" transform="translate(0)"/><text class="cls-133" transform="translate(120.22 376.05)">Mac/<tspan class="cls-106" x="23.9" y="0">P</tspan><tspan class="cls-135" x="29.98" y="0">C</tspan><tspan class="cls-49" x="35.61" y="0"> </tspan><tspan class="cls-136" x="38.23" y="0">C</tspan><tspan x="44.18" y="0">apabilities</tspan></text><text class="cls-133" transform="translate(154.22 388.05)">Social Media</text><text class="cls-133" transform="translate(153.55 400.05)">Pho<tspan class="cls-66" x="18.74" y="0">t</tspan><tspan x="22.73" y="0">ography</tspan></text><text class="cls-133" transform="translate(167.17 412.05)">JavaScript</text><text class="cls-133" transform="translate(95.34 462.15)">Sur<tspan class="cls-99" x="16.23" y="0">v</tspan><tspan class="cls-137" x="21.62" y="0">e</tspan><tspan class="cls-57" x="27.41" y="0">y</tspan><tspan x="32.42" y="0"> </tspan><tspan class="cls-49" x="35.18" y="0">o</tspan><tspan class="cls-56" x="41.2" y="0">f</tspan><tspan class="cls-49" x="44.9" y="0"> </tspan><tspan x="47.52" y="0">Graphi</tspan><tspan class="cls-131" x="79.76" y="0">c</tspan><tspan x="84.49" y="0" xml:space="preserve"> Design</tspan></text><text class="cls-133" transform="translate(124.16 474.15)"><tspan class="cls-138">T</tspan><tspan x="4.77" y="0">ypograph</tspan><tspan class="cls-79" x="51.22" y="0">y</tspan><tspan class="cls-56" x="56.22" y="0" xml:space="preserve"> I</tspan><tspan class="cls-139" x="62.86" y="0">,</tspan><tspan x="64.94" y="0" xml:space="preserve"> II</tspan><tspan class="cls-50" x="75.46" y="0">,</tspan><tspan x="77.53" y="0" xml:space="preserve"> III</tspan></text><text class="cls-133" transform="translate(86.97 486.15)">Digital Illustration<tspan class="cls-57" x="91.02" y="0">,</tspan><tspan x="93.09" y="0"> </tspan><tspan class="cls-140" x="95.85" y="0">L</tspan><tspan class="cls-35" x="101.38" y="0">a</tspan><tspan class="cls-141" x="107.17" y="0">y</tspan><tspan class="cls-35" x="112.51" y="0">out</tspan></text><text class="cls-133" transform="translate(136.24 498.15)"><tspan class="cls-53">P</tspan><tspan x="5.88" y="0">rint </tspan><tspan class="cls-142" x="26.29" y="0">P</tspan><tspan class="cls-35" x="32.17" y="0">roduction</tspan></text><text class="cls-133" transform="translate(122.67 510.15)">Graphi<tspan class="cls-131" x="32.24" y="0">c</tspan><tspan x="36.97" y="0" xml:space="preserve"> Symbolism</tspan></text><text class="cls-133" transform="translate(126.8 522.15)"><tspan class="cls-36">C</tspan><tspan x="5.69" y="0">orpora</tspan><tspan class="cls-44" x="38.15" y="0">t</tspan><tspan x="42.14" y="0">e Identi</tspan><tspan class="cls-131" x="80.53" y="0">t</tspan><tspan class="cls-56" x="84.3" y="0">y</tspan></text><text class="cls-133" transform="translate(133.56 534.15)"><tspan class="cls-142">P</tspan><tspan x="5.88" y="0">roduct</tspan><tspan class="cls-49" x="37.84" y="0"> </tspan><tspan x="40.46" y="0">Graphics</tspan></text><text class="cls-133" transform="translate(148.4 546.15)"><tspan class="cls-143">W</tspan><tspan x="8.81" y="0">eb Scripting</tspan></text><text class="cls-133" transform="translate(77.65 558.15)">Motion<tspan class="cls-137" x="34.59" y="0"> </tspan><tspan class="cls-56" x="37.2" y="0">Graphics </tspan><tspan class="cls-120" x="82.03" y="0">f</tspan><tspan x="85.67" y="0">or the</tspan><tspan class="cls-144" x="115.01" y="0"> </tspan><tspan class="cls-143" x="117.51" y="0">W</tspan><tspan x="126.32" y="0">eb</tspan></text><text class="cls-133" transform="translate(51.67 570.15)"><tspan class="cls-110">P</tspan><tspan x="5.89" y="0">ublication</tspan><tspan class="cls-57" x="55.58" y="0">,</tspan><tspan class="cls-46" x="57.65" y="0"> </tspan><tspan class="cls-36" x="60.27" y="0">C</tspan><tspan class="cls-35" x="65.96" y="0">olla</tspan><tspan class="cls-44" x="84.65" y="0">t</tspan><tspan x="88.64" y="0">eral</tspan><tspan class="cls-57" x="107.8" y="0">,</tspan><tspan x="109.87" y="0" xml:space="preserve"> Mar</tspan><tspan class="cls-69" x="131.16" y="0">k</tspan><tspan x="136.67" y="0">eting</tspan><tspan class="cls-60" x="162.39" y="0">,</tspan><tspan x="164.47" y="0"> </tspan></text><text class="cls-133" transform="translate(138.15 582.15)">Edi<tspan class="cls-66" x="15.11" y="0">t</tspan><tspan x="19.1" y="0">orial Design</tspan></text><text class="cls-133" transform="translate(68.02 594.15)">Environmental<tspan class="cls-49" x="72.19" y="0"> </tspan><tspan x="74.81" y="0">Graphi</tspan><tspan class="cls-131" x="107.05" y="0">c</tspan><tspan x="111.78" y="0" xml:space="preserve"> Design</tspan></text><text class="cls-133" transform="translate(65.95 606.15)">Business <tspan class="cls-58" x="45.57" y="0">f</tspan><tspan x="49.21" y="0">or</tspan><tspan class="cls-46" x="59.43" y="0"> </tspan><tspan x="62.05" y="0">Graphi</tspan><tspan class="cls-131" x="94.29" y="0">c</tspan><tspan x="99.02" y="0" xml:space="preserve"> Designers</tspan></text><text class="cls-133" transform="translate(150.73 618.15)">Design group</text><text class="cls-133" transform="translate(153.41 630.15)">A<tspan class="cls-145" x="6.58" y="0">r</tspan><tspan x="10.99" y="0">t Dir</tspan><tspan class="cls-58" x="32.04" y="0">e</tspan><tspan x="37.92" y="0">ction</tspan></text><text class="cls-133" transform="translate(113.75 642.15)">Senior Design Studio</text><text class="cls-133" transform="translate(133.83 654.15)"><tspan class="cls-36">C</tspan><tspan x="5.69" y="0">on</tspan><tspan class="cls-107" x="18.23" y="0">c</tspan><tspan x="23.04" y="0">ept Imagery</tspan></text><text class="cls-133" transform="translate(116.84 666.15)">In<tspan class="cls-66" x="10.26" y="0">t</tspan><tspan x="14.25" y="0">eracti</tspan><tspan class="cls-59" x="42.25" y="0">v</tspan><tspan x="47.63" y="0">e </tspan><tspan class="cls-36" x="56.33" y="0">P</tspan><tspan class="cls-35" x="62.15" y="0">o</tspan><tspan class="cls-146" x="68.31" y="0">r</tspan><tspan x="72.72" y="0">t</tspan><tspan class="cls-120" x="76.76" y="0">f</tspan><tspan x="80.4" y="0">olio</tspan></text><text class="cls-133" transform="translate(147.67 678.15)">Senior <tspan class="cls-53" x="34.22" y="0">P</tspan><tspan x="40.1" y="0">roj</tspan><tspan class="cls-66" x="53.49" y="0">e</tspan><tspan x="59.38" y="0">ct</tspan></text><text class="cls-147" transform="translate(167.74 335.64)"><tspan class="cls-148">S</tspan><tspan class="cls-149" x="8.33" y="0">KILL</tspan><tspan x="39.78" y="0">S</tspan></text><text class="cls-147" transform="translate(65.12 445.7)"><tspan class="cls-150">C</tspan><tspan class="cls-151" x="8.28" y="0">O</tspan><tspan class="cls-45" x="18.9" y="0">M</tspan><tspan class="cls-151" x="31.62" y="0">PL</tspan><tspan class="cls-148" x="48.7" y="0">E</tspan><tspan class="cls-151" x="56.89" y="0">T</tspan><tspan class="cls-45" x="65.85" y="0">E</tspan><tspan class="cls-152" x="74.04" y="0">D </tspan><tspan class="cls-153" x="87.69" y="0">C</tspan><tspan class="cls-149" x="95.95" y="0">OU</tspan><tspan class="cls-148" x="116.47" y="0">RSE</tspan><tspan x="142.47" y="0">S</tspan></text></svg>