<svg id="Layer_1" data-name="Layer 1" xmlns="http://www.w3.org/2000/svg" viewBox="0 0 383 102"><defs><style>.cls-1{fill:#f15a29;}.cls-2{font-size:33px;fill:#fff;font-family:PTSans-CaptionBold, PT Sans Caption;font-weight:700;}.cls-3{letter-spacing:-0.03em;}.cls-4{letter-spacing:-0.03em;}.cls-5{letter-spacing:-0.03em;}.cls-6{letter-spacing:-0.03em;}.cls-7{fill:#c69c6d;}.cls-8{fill:#a67c52;}.cls-9{fill:#d8c623;}</style></defs><title>work_button</title><rect class="cls-1" width="383" height="102" rx="12" ry="12"/><text class="cls-2" transform="translate(40.89 59.42)">SEE M<tspan class="cls-3" x="94.08" y="0">Y</tspan><tspan class="cls-4" x="114.34" y="0"> </tspan><tspan class="cls-5" x="122.56" y="0">W</tspan><tspan x="152.49" y="0">OR</tspan><tspan class="cls-6" x="198" y="0">K</tspan></text><polygon points="297.89 70.36 304.11 76.58 292.06 82.42 280 88.25 285.83 76.19 291.67 64.14 297.89 70.36"/><polygon class="cls-7" points="297.82 70.43 291.6 64.21 300.1 61.93 308.6 59.65 306.32 68.15 304.04 76.65 297.82 70.43"/><polygon class="cls-7" points="302.35 53.55 296.12 47.32 304.62 45.05 313.12 42.77 310.85 51.27 308.57 59.77 302.35 53.55"/><polygon class="cls-7" points="314.7 65.91 308.48 59.68 316.98 57.41 325.48 55.13 323.2 63.63 320.93 72.13 314.7 65.91"/><polygon class="cls-7" points="319.3 48.95 313.08 42.73 321.58 40.45 330.08 38.17 327.8 46.67 325.52 55.17 319.3 48.95"/><polygon class="cls-7" points="306.94 36.59 300.72 30.37 309.22 28.09 317.72 25.81 315.44 34.31 313.17 42.81 306.94 36.59"/><polygon class="cls-7" points="331.66 61.31 325.44 55.08 333.94 52.81 342.44 50.53 340.16 59.03 337.88 67.53 331.66 61.31"/><polygon class="cls-8" points="302.35 53.55 308.57 59.77 300.07 62.05 291.57 64.32 293.85 55.82 296.12 47.32 302.35 53.55"/><polygon class="cls-8" points="314.7 65.91 320.93 72.13 312.43 74.41 303.93 76.68 306.2 68.18 308.48 59.68 314.7 65.91"/><polygon class="cls-8" points="306.94 36.59 313.17 42.81 304.67 45.09 296.17 47.37 298.44 38.87 300.72 30.37 306.94 36.59"/><polygon class="cls-8" points="331.66 61.31 337.88 67.53 329.38 69.81 320.88 72.08 323.16 63.58 325.44 55.08 331.66 61.31"/><polygon class="cls-8" points="319.3 48.95 325.52 55.17 317.02 57.45 308.52 59.73 310.8 51.23 313.08 42.73 319.3 48.95"/><polygon class="cls-9" points="311.54 19.63 317.76 25.86 309.26 28.13 300.76 30.41 303.04 21.91 305.32 13.41 311.54 19.63"/><polygon class="cls-9" points="348.62 56.71 354.84 62.93 346.34 65.21 337.84 67.48 340.12 58.99 342.39 50.49 348.62 56.71"/><polygon class="cls-9" points="336.26 44.35 342.48 50.57 333.98 52.85 325.48 55.13 327.76 46.63 330.04 38.13 336.26 44.35"/><polygon class="cls-9" points="323.9 31.99 330.12 38.21 321.62 40.49 313.12 42.77 315.4 34.27 317.68 25.77 323.9 31.99"/><polygon class="cls-9" points="348.47 56.85 342.25 50.63 350.75 48.35 359.25 46.07 356.97 54.57 354.69 63.07 348.47 56.85"/><polygon class="cls-9" points="311.4 19.78 305.18 13.55 313.68 11.28 322.18 9 319.9 17.5 317.62 26 311.4 19.78"/><polygon class="cls-9" points="323.76 32.14 317.53 25.91 326.03 23.64 334.53 21.36 332.26 29.86 329.98 38.36 323.76 32.14"/><polygon class="cls-9" points="336.11 44.49 329.89 38.27 338.39 35.99 346.89 33.72 344.61 42.22 342.34 50.72 336.11 44.49"/></svg>