<?xml version="1.0" encoding="utf-8"?>
<!-- Generator: Adobe Illustrator 22.1.0, SVG Export Plug-In . SVG Version: 6.00 Build 0)  -->
<svg version="1.1" id="Layer_1" xmlns="http://www.w3.org/2000/svg" xmlns:xlink="http://www.w3.org/1999/xlink" x="0px" y="0px"
	 viewBox="0 0 383 102" style="enable-background:new 0 0 383 102;" xml:space="preserve">
<style type="text/css">
	.st0{fill:#F15A29;}
	.st1{fill:#FFFFFF;}
</style>
<title>work_button</title>
<path class="st0" d="M12-0.1h359c6.6,0,12,5.4,12,12v78c0,6.6-5.4,12-12,12H12c-6.6,0-12-5.4-12-12v-78C0,5.3,5.4-0.1,12-0.1z"/>
<g>
	<path class="st1" d="M37.8,37.5c0.5-0.1,1-0.1,1.7-0.2c0.6,0,1.3-0.1,1.9-0.1c0.7,0,1.3,0,2,0c0.6,0,1.2,0,1.7,0
		c2.2,0,4.1,0.3,5.7,0.9c1.6,0.6,2.9,1.4,3.9,2.4c1,1,1.7,2.3,2.2,3.7c0.5,1.4,0.7,3,0.7,4.7c0,1.5-0.2,3-0.7,4.5
		c-0.5,1.5-1.2,2.7-2.2,3.9c-1,1.1-2.3,2-4,2.7c-1.6,0.7-3.6,1-6,1c-0.4,0-0.9,0-1.5,0c-0.6,0-1.3,0-2-0.1s-1.3-0.1-1.9-0.1
		c-0.6,0-1.1-0.1-1.4-0.1V37.5z M45.5,41.5c-0.5,0-1,0-1.6,0c-0.5,0-0.9,0-1.2,0.1v15c0.1,0,0.3,0,0.5,0c0.2,0,0.5,0,0.7,0
		c0.3,0,0.5,0,0.7,0s0.4,0,0.5,0c1.4,0,2.6-0.2,3.5-0.7s1.7-1,2.2-1.7c0.5-0.7,0.9-1.6,1.1-2.5c0.2-0.9,0.3-1.9,0.3-2.9
		c0-0.8-0.1-1.7-0.3-2.5c-0.2-0.9-0.6-1.7-1.1-2.4c-0.5-0.7-1.2-1.3-2.1-1.8C48,41.7,46.9,41.5,45.5,41.5z"/>
	<path class="st1" d="M60.9,49.1c0-1.9,0.2-3.6,0.7-5.1s1.2-2.8,2.1-3.8c0.9-1,2-1.8,3.3-2.3c1.3-0.5,2.8-0.8,4.5-0.8
		c1.8,0,3.3,0.3,4.7,0.9c1.3,0.6,2.4,1.4,3.3,2.5s1.6,2.3,2,3.8c0.5,1.5,0.7,3.1,0.7,4.9c0,1.9-0.2,3.6-0.7,5.1
		c-0.5,1.5-1.2,2.8-2.1,3.8c-0.9,1-2,1.8-3.4,2.3c-1.3,0.5-2.8,0.8-4.5,0.8c-1.8,0-3.3-0.3-4.7-0.9c-1.3-0.6-2.4-1.4-3.3-2.5
		s-1.6-2.3-2-3.8C61.1,52.5,60.9,50.9,60.9,49.1z M66.1,49.1c0,1.1,0.1,2.2,0.3,3.1c0.2,0.9,0.5,1.8,1,2.4c0.4,0.7,1,1.2,1.7,1.6
		c0.7,0.4,1.5,0.6,2.5,0.6c1.7,0,3.1-0.6,4.1-1.8c1-1.2,1.5-3.2,1.5-5.9c0-1.1-0.1-2.1-0.3-3.1c-0.2-0.9-0.5-1.8-1-2.5
		c-0.5-0.7-1-1.2-1.7-1.6s-1.5-0.6-2.5-0.6c-1.7,0-3.1,0.6-4,1.8C66.5,44.5,66.1,46.4,66.1,49.1z"/>
	<path class="st1" d="M91.9,50.2l0.5,4.1h0.1l0.5-4.2l4.4-12.6h3.2l4.3,12.7l0.5,4.1h0.2l0.5-4.2l3.1-12.6h5l-6.9,23.3h-3.3
		l-4.5-12.6l-0.6-3.6h-0.2L98,48.3l-4.5,12.5h-3.5l-6.9-23.3h5.3L91.9,50.2z"/>
	<path class="st1" d="M123.2,48.6l-2-3.5h-0.2l0.5,3.5v12H117V37.4h3.5l9.5,12.3l1.9,3.4h0.2l-0.5-3.4V37.5h4.6v23.3h-3.5
		L123.2,48.6z"/>
	<path class="st1" d="M157.1,60.6h-15.9V37.5h4.9v18.8h11V60.6z"/>
	<path class="st1" d="M156.1,49.1c0-1.9,0.2-3.6,0.7-5.1s1.2-2.8,2.1-3.8c0.9-1,2-1.8,3.3-2.3c1.3-0.5,2.8-0.8,4.5-0.8
		c1.8,0,3.3,0.3,4.7,0.9c1.3,0.6,2.4,1.4,3.3,2.5s1.6,2.3,2,3.8c0.5,1.5,0.7,3.1,0.7,4.9c0,1.9-0.2,3.6-0.7,5.1
		c-0.5,1.5-1.2,2.8-2.1,3.8c-0.9,1-2,1.8-3.4,2.3c-1.3,0.5-2.8,0.8-4.5,0.8c-1.8,0-3.3-0.3-4.7-0.9c-1.3-0.6-2.4-1.4-3.3-2.5
		s-1.6-2.3-2-3.8C156.3,52.5,156.1,50.9,156.1,49.1z M161.3,49.1c0,1.1,0.1,2.2,0.3,3.1c0.2,0.9,0.5,1.8,1,2.4
		c0.4,0.7,1,1.2,1.7,1.6c0.7,0.4,1.5,0.6,2.5,0.6c1.7,0,3.1-0.6,4.1-1.8c1-1.2,1.5-3.2,1.5-5.9c0-1.1-0.1-2.1-0.3-3.1
		c-0.2-0.9-0.5-1.8-1-2.5c-0.5-0.7-1-1.2-1.7-1.6s-1.5-0.6-2.5-0.6c-1.7,0-3.1,0.6-4,1.8C161.7,44.5,161.3,46.4,161.3,49.1z"/>
	<path class="st1" d="M193,55.7h-7.8l-1.9,4.9h-4.9l9-23.3h3.6l9.1,23.3h-5.2L193,55.7z M186.5,51.9h5.3L190,47l-0.8-3.7h-0.2
		l-0.8,3.7L186.5,51.9z"/>
	<path class="st1" d="M203,37.5c0.5-0.1,1-0.1,1.7-0.2c0.6,0,1.3-0.1,1.9-0.1c0.7,0,1.3,0,2,0c0.6,0,1.2,0,1.7,0
		c2.2,0,4.1,0.3,5.7,0.9c1.6,0.6,2.9,1.4,3.9,2.4c1,1,1.7,2.3,2.2,3.7c0.5,1.4,0.7,3,0.7,4.7c0,1.5-0.2,3-0.7,4.5
		c-0.5,1.5-1.2,2.7-2.2,3.9c-1,1.1-2.3,2-4,2.7c-1.6,0.7-3.6,1-6,1c-0.4,0-0.9,0-1.5,0c-0.6,0-1.3,0-2-0.1c-0.7,0-1.3-0.1-1.9-0.1
		c-0.6,0-1.1-0.1-1.4-0.1V37.5z M210.6,41.5c-0.5,0-1,0-1.6,0c-0.5,0-0.9,0-1.2,0.1v15c0.1,0,0.3,0,0.5,0c0.2,0,0.5,0,0.7,0
		c0.3,0,0.5,0,0.7,0c0.2,0,0.4,0,0.5,0c1.4,0,2.6-0.2,3.5-0.7s1.7-1,2.2-1.7c0.5-0.7,0.9-1.6,1.1-2.5c0.2-0.9,0.3-1.9,0.3-2.9
		c0-0.8-0.1-1.7-0.3-2.5c-0.2-0.9-0.6-1.7-1.1-2.4c-0.5-0.7-1.2-1.3-2.1-1.8C213.1,41.7,212,41.5,210.6,41.5z"/>
	<path class="st1" d="M247.1,55.7h-7.8l-1.9,4.9h-4.9l9-23.3h3.6l9.1,23.3h-5.2L247.1,55.7z M240.7,51.9h5.3l-1.8-4.8l-0.8-3.7h-0.2
		l-0.8,3.7L240.7,51.9z"/>
	<path class="st1" d="M281.8,59.7c-0.7,0.5-1.7,0.9-2.9,1.1s-2.4,0.3-3.7,0.3c-1.5,0-2.9-0.2-4.2-0.7s-2.6-1.1-3.6-2.1
		c-1-1-1.9-2.2-2.5-3.7c-0.6-1.5-0.9-3.4-0.9-5.5c0-2.2,0.4-4.1,1.1-5.7c0.7-1.5,1.6-2.8,2.7-3.7s2.3-1.6,3.7-2
		c1.3-0.4,2.7-0.6,4-0.6c1.4,0,2.6,0.1,3.6,0.3c1,0.2,1.8,0.4,2.4,0.6l-1,4.1c-0.5-0.2-1.2-0.4-1.9-0.5c-0.7-0.1-1.7-0.2-2.8-0.2
		c-1,0-1.9,0.2-2.7,0.5c-0.8,0.3-1.5,0.8-2.1,1.4c-0.6,0.6-1,1.4-1.3,2.4c-0.3,1-0.5,2.1-0.5,3.4c0,1.1,0.1,2.2,0.4,3.1
		c0.3,0.9,0.7,1.8,1.3,2.4c0.6,0.7,1.3,1.2,2.2,1.6c0.9,0.4,1.9,0.6,3.1,0.6c1.1,0,2-0.1,2.7-0.3c0.7-0.2,1.4-0.5,2-0.8L281.8,59.7z
		"/>
	<path class="st1" d="M283.5,49.1c0-1.9,0.2-3.6,0.7-5.1c0.5-1.5,1.2-2.8,2.1-3.8c0.9-1,2-1.8,3.3-2.3s2.8-0.8,4.5-0.8
		c1.8,0,3.3,0.3,4.7,0.9c1.3,0.6,2.4,1.4,3.3,2.5c0.9,1.1,1.6,2.3,2,3.8c0.5,1.5,0.7,3.1,0.7,4.9c0,1.9-0.2,3.6-0.7,5.1
		c-0.5,1.5-1.2,2.8-2.1,3.8c-0.9,1-2,1.8-3.4,2.3s-2.8,0.8-4.5,0.8c-1.8,0-3.3-0.3-4.7-0.9c-1.3-0.6-2.4-1.4-3.3-2.5
		c-0.9-1.1-1.6-2.3-2-3.8S283.5,50.9,283.5,49.1z M288.7,49.1c0,1.1,0.1,2.2,0.3,3.1c0.2,0.9,0.6,1.8,1,2.4c0.4,0.7,1,1.2,1.7,1.6
		c0.7,0.4,1.5,0.6,2.5,0.6c1.7,0,3.1-0.6,4.1-1.8c1-1.2,1.5-3.2,1.5-5.9c0-1.1-0.1-2.1-0.3-3.1c-0.2-0.9-0.5-1.8-1-2.5
		c-0.5-0.7-1-1.2-1.7-1.6s-1.5-0.6-2.5-0.6c-1.7,0-3.1,0.6-4,1.8C289.2,44.5,288.7,46.4,288.7,49.1z"/>
	<path class="st1" d="M309,37.8c1-0.2,2.1-0.3,3.3-0.4c1.2-0.1,2.4-0.1,3.6-0.1c1.2,0,2.5,0.1,3.7,0.3c1.3,0.2,2.4,0.6,3.4,1.1
		c1,0.6,1.8,1.3,2.5,2.3c0.6,1,1,2.3,1,4c0,1.5-0.3,2.7-0.8,3.7s-1.3,1.9-2.2,2.5c-0.9,0.6-2,1.1-3.1,1.4S318,53,316.8,53
		c-0.1,0-0.3,0-0.6,0c-0.3,0-0.5,0-0.8,0c-0.3,0-0.6,0-0.8,0c-0.3,0-0.5,0-0.6-0.1v7.8H309V37.8z M316.3,41.5c-0.5,0-0.9,0-1.3,0
		c-0.4,0-0.8,0.1-1,0.1v6.9c0.1,0,0.2,0,0.4,0.1c0.2,0,0.4,0,0.6,0c0.2,0,0.4,0,0.6,0c0.2,0,0.3,0,0.4,0c0.6,0,1.3,0,1.9-0.1
		c0.6-0.1,1.2-0.3,1.7-0.6c0.5-0.3,0.9-0.7,1.2-1.2c0.3-0.5,0.5-1.2,0.5-2c0-0.7-0.1-1.3-0.4-1.7c-0.3-0.4-0.7-0.8-1.1-1
		c-0.5-0.2-1-0.4-1.6-0.5C317.5,41.5,316.9,41.5,316.3,41.5z"/>
	<path class="st1" d="M335.2,52.1L327,37.5h5.8l4.6,8.5l0.5,2.5h0.2l0.6-2.5l4.5-8.4h5.2l-8.2,14.6v8.5h-4.9V52.1z"/>
</g>
</svg>
